<svg id="Layer_1" data-name="Layer 1" xmlns="http://www.w3.org/2000/svg" width="300" height="305.34" viewBox="0 0 300 305.34"><defs><style>.cls-1{fill:#f5fbfe;}.cls-2{fill:#a2def9;}.cls-3{fill:#e2f4fd;}.cls-4{fill:#d4d4d4;}.cls-5{fill:#9d278f;}.cls-6{fill:#eb0d8c;}.cls-7{fill:#faec1f;}.cls-8{fill:#25bec6;}.cls-9{fill:#fff;}.cls-10{fill:none;stroke:#fff;stroke-linecap:round;stroke-width:2.26px;}.cls-11{fill:#29b7eb;}</style></defs><title>Artboard 1</title><path class="cls-1" d="M175.41,32.37c4,1.73,9.15,7.59,9.71,12.85l.09-1.41v-1A14.3,14.3,0,0,0,171,28.45a14.06,14.06,0,0,0-7.71,2.3l-2.85,1.86a23,23,0,0,1,14.93-.26"/><path class="cls-2" d="M188.18,44V42.83A17.28,17.28,0,0,0,171,25.47a17,17,0,0,0-9.33,2.78,23.36,23.36,0,0,0-43.8-6.2,21.57,21.57,0,0,0-4.06-.4c-11.78,0-21.42,9.45-22.25,21.42A22,22,0,0,0,94.68,86.8h6.79a21.92,21.92,0,0,0,36.65,2,22.35,22.35,0,0,0,38.77-2h4.3a22,22,0,0,0,7-42.79"/><path class="cls-3" d="M156.88,95.11a20.88,20.88,0,0,1-17.55-9.59l-1.16-1.79-1.27,1.71a20.33,20.33,0,0,1-16.47,8.33,20.62,20.62,0,0,1-17.72-10.24l-.43-.74H94.65c-11.18,0-20.28-6.68-20.28-18A20.5,20.5,0,0,1,91.73,44.55l1.19-.17L93,43.17c.8-11.22,9.9-20,20.8-20a20.2,20.2,0,0,1,3.86.38l1.09.21.51-1a21.88,21.88,0,0,1,41,5.8l.43,2.17,1.84-1.2A15.52,15.52,0,0,1,171,26.95a15.8,15.8,0,0,1,15.71,15.86v1.08L186.67,45l1.08.37a20.46,20.46,0,0,1,13.73,19.38c0,11.29-9.1,18-20.28,18H176l-.41.82a20.88,20.88,0,0,1-18.71,11.5"/><path class="cls-1" d="M138.74,15.24c8.31,0,17.19,7.28,20.55,16.09l-.49-2.49a20.39,20.39,0,0,0-38.24-5.41l-.18.34c4.31-5.29,12.18-8.53,18.36-8.53"/><path class="cls-1" d="M103.48,31.48c2.83-2.4,10.17-6.12,14.56-6.35l-.69-.13a18.7,18.7,0,0,0-3.55-.35c-10.09,0-18.56,8.18-19.29,18.63v.21a31.37,31.37,0,0,1,9-12"/><path class="cls-4" d="M102.41,297.95s-.1-2.17,0-6a32.85,32.85,0,0,1,.81-6.84,12.72,12.72,0,0,1,4.81-7.44c5.35-4.22,14-3.68,20.15-9.35a21,21,0,0,0,6.71-10.25,26.38,26.38,0,0,0,.18-12.75c-1.69-8.65-7.83-15.4-12.44-22.4-4.8-7-7.35-15.12-6.73-22.28s4.59-12.32,7-15.74,4.22-5.48,4.55-5.92c2.73-3.39,5.3-5.84,5.85-5.43s-1.16,3.59-3.9,7c-.33.43-2,2.47-4.58,5.78s-6,8-6.8,14.54,1.52,14.29,6.07,21.14c4.36,6.91,10.62,14,12.23,23.07a27.49,27.49,0,0,1-.52,13.29,21.84,21.84,0,0,1-7.14,10.58c-6.52,5.74-15.22,5-20.42,9a12.4,12.4,0,0,0-4.81,7.18,32.67,32.67,0,0,0-.93,6.77c-.15,3.81-.07,6-.09,6"/><path class="cls-4" d="M118.2,267.4a27.51,27.51,0,0,0,6-10.16,23.44,23.44,0,0,0,1-11.95c-.82-4.41-4-8.24-7.55-11.36s-7.45-6.18-10.27-9.93a26,26,0,0,1-5.1-11.7,17.6,17.6,0,0,1,3-13.13c1.46-2,3.3-3,3.57-2.69s-.92,1.82-2.22,3.66a16.11,16.11,0,0,0-2.94,12,24.73,24.73,0,0,0,4.62,11.21c2.61,3.64,6.36,6.73,9.92,10s6.76,7.28,7.5,11.87a23.85,23.85,0,0,1-1.26,12.14,27.58,27.58,0,0,1-6.2,10.07"/><path class="cls-5" d="M211.8,21.48c-.47,1.14-.79,2.11-1.3,3.18L175,93.4,117.1,63.47c18.06,4.57,81.7-16.79,94.7-42"/><path class="cls-6" d="M235.8,125.16l-60-31.38,36.39-71.83c-5.88,17.58-8.81,75,23.57,103.22"/><path class="cls-7" d="M235.43,125.72c-21.13-5.52-80.32,19.15-98.83,44.23l38.85-75.4s59.79,31,60,31.18"/><path class="cls-8" d="M174.8,94.1s-38.59,74.25-39,74.92c6.74-13,11.17-80.29-18.86-104.91,1.1.49,57.82,30,57.82,30"/><path class="cls-9" d="M163.72,118.54a35.63,35.63,0,0,0,30.28.11A28.33,28.33,0,0,1,144.42,95.2a35.64,35.64,0,0,0,19.3,23.33"/><line class="cls-10" x1="117.58" y1="63.95" x2="234.78" y2="125.07"/><line class="cls-10" x1="136.28" y1="169.94" x2="212.03" y2="22.34"/><path class="cls-5" d="M34.67,257.44l-16.1-24.29v24.29H14v-47h4.52v21.65l14-21.63h4.9l-14,21.89,16.7,25.09Z"/><path class="cls-5" d="M51.71,258c-8.52,0-9.58-6-9.58-13v-1.8c0-3.26-.2-13.11.93-15.9,1.46-3.73,4.72-5,8.58-5,8.45,0,9.65,5.12,9.65,12.31v6.59H46.52v4.06c0,1.86.13,5.86,1.26,7.39a5,5,0,0,0,4,1.6c5.12,0,5.12-4.26,5.12-8.12h4.39v.6C61.29,253.62,59.3,258,51.71,258Zm5.19-24.22c0-2.59.2-5.39-2.2-7a5.45,5.45,0,0,0-2.86-.8c-4.59,0-5.32,3.06-5.32,6.85v4.66H56.9Z"/><path class="cls-5" d="M78.33,227c-6.05,0-6.57,5.92-6.57,10.65v19.82H67.42V223h4.13v5.46c1.12-4.19,2.46-5.81,7-5.81h.8V227A5.72,5.72,0,0,0,78.33,227Z"/><path class="cls-5" d="M100.69,253.05a7.13,7.13,0,0,1-6.85,5c-2.86,0-5.08-1.43-7.08-3.43v2.86h-4v-47H87v15a8.27,8.27,0,0,1,6.39-3.13c9.05,0,8.05,10,8.05,16.24C101.42,241.47,101.56,250.62,100.69,253.05ZM97,236.48c0-2.06,0-7.12-1.26-8.72A4.17,4.17,0,0,0,92.17,226a4.71,4.71,0,0,0-4.59,3.33c-.6,1.46-.6,7-.6,8.72,0,2.53,0,5.06.07,7.58a22.47,22.47,0,0,0,.13,3.66c.47,2.79,2.13,4.93,5.12,4.93,5.26,0,4.66-6.86,4.66-10.38Z"/><path class="cls-5" d="M116.87,258c-8.52,0-9.58-6-9.58-13v-1.8c0-3.26-.2-13.11.93-15.9,1.46-3.73,4.72-5,8.58-5,8.45,0,9.65,5.12,9.65,12.31v6.59H111.68v4.06c0,1.86.13,5.86,1.26,7.39a5,5,0,0,0,4,1.6c5.12,0,5.12-4.26,5.12-8.12h4.39v.6C126.45,253.62,124.45,258,116.87,258Zm5.19-24.22c0-2.59.2-5.39-2.19-7A5.46,5.46,0,0,0,117,226c-4.59,0-5.32,3.06-5.32,6.85v4.66h10.37Z"/><path class="cls-5" d="M143.49,227c-6.06,0-6.59,5.92-6.59,10.65v19.82h-4.33V223h4.13v5.46c1.13-4.19,2.46-5.81,7.06-5.81h.8V227A5.73,5.73,0,0,0,143.49,227Z"/><path class="cls-5" d="M175.43,256.91a16.09,16.09,0,0,1-5.86,1.13c-3.93,0-8.19-1.26-10.12-5-1.26-2.53-1.26-6.26-1.26-9h4.57c0,2.86-.33,6.65,2.2,8.65a6.63,6.63,0,0,0,4.26,1.33c5.26,0,7.92-2.33,7.92-7.78,0-7.25-4.39-9.12-9.78-12.58a24.13,24.13,0,0,1-4.86-3.73,13.75,13.75,0,0,1-3.24-9.31c0-7,3.79-10.78,11-10.78,7.59,0,10.78,3.92,10.78,11.11v1.13h-4.33c0-4.59-.8-8.25-6.45-8.25-4.26,0-6.52,2.26-6.52,6.45,0,7.25,5.52,9,10.71,12.44a18.32,18.32,0,0,1,3.79,3c2.53,2.73,3.33,6.52,3.33,10.11C181.55,250.45,180.09,255.11,175.43,256.91Z"/><path class="cls-5" d="M215.36,257.44V233.15c0-3.26-.47-6.86-4.59-6.86a5,5,0,0,0-3,1.07c-1.93,1.66-1.93,3.93-1.93,6.26v23.82h-4.39V232.62c0-3.26-.53-6.32-4.59-6.32-4.52,0-4.92,3.79-4.92,7.32v23.82h-4.39V223h4.06v2.59a9.16,9.16,0,0,1,6.79-3.19,7,7,0,0,1,6.52,3.86c2-2.46,3.93-3.86,7.25-3.86,6.39,0,7.52,5.19,7.52,10.38v24.69Z"/><path class="cls-5" d="M226.42,215.92v-5.46h4.34v5.46Zm0,41.52V223h4.34v34.47Z"/><path class="cls-5" d="M237.53,257.44v-47h4.33v47Z"/><path class="cls-5" d="M257.76,258c-8.52,0-9.58-6-9.58-13v-1.8c0-3.26-.2-13.11.93-15.9,1.46-3.73,4.72-5,8.58-5,8.45,0,9.65,5.12,9.65,12.31v6.59H252.57v4.06c0,1.86.13,5.86,1.27,7.39a5,5,0,0,0,4,1.6c5.12,0,5.12-4.26,5.12-8.12h4.39v.6C267.34,253.62,265.34,258,257.76,258ZM263,233.82c0-2.59.2-5.39-2.2-7a5.45,5.45,0,0,0-2.86-.8c-4.59,0-5.32,3.06-5.32,6.85v4.66H263Z"/><path class="cls-5" d="M281.65,258c-6.45,0-9.25-3.13-9.25-9.25v-2.46h4.36v2c0,3.39.73,6.06,4.72,6.06,3.26,0,4.52-2.26,4.52-5.32,0-3.73-1.53-5.19-4.46-7-4.52-2.86-8.92-5.26-8.92-11.38,0-5.26,3.33-8.25,8.58-8.25,3.46,0,6.72,1.26,8.12,4.66.6,1.46.6,4.13.6,5.72h-4.39v-1.48c0-3.13-.66-5.26-4.26-5.26-2.73,0-4.13,1.86-4.13,4.39,0,3.53,1.93,4.66,4.66,6.39,2,1.27,4.19,2.4,5.79,4.13a11.68,11.68,0,0,1,2.86,8C290.44,254.51,287.31,258,281.65,258Z"/><path class="cls-11" d="M31,271.86H38c3.17,0,4.86,1.56,4.86,4.22s-1.69,4.24-4.86,4.22H33.14v5.83H31Zm2.11,6.83h4.13c2.4,0,3.46-.92,3.46-2.62s-1.06-2.62-3.46-2.62H33.14Z"/><path class="cls-11" d="M45.63,271.86H56.57v1.6H47.76V278H56v1.62H47.76v4.94h8.89v1.6h-11Z"/><path class="cls-11" d="M59.41,271.86h5.43c4.88,0,7.61,2.22,7.61,6.79,0,4.77-2.33,7.47-7.61,7.47H59.41Zm2.11,12.67H65c1.44,0,5.32-.36,5.32-5.61,0-3.4-1.4-5.46-5.28-5.46H61.51Z"/><path class="cls-11" d="M75.33,271.86h2.11v14.27H75.33Z"/><path class="cls-11" d="M85.52,271.86h2.33L94,286.13H91.71L90,281.83h-6.7l-1.77,4.3H79.33Zm-1.58,8.37h5.37l-2.64-6.61h0Z"/><path class="cls-11" d="M99.4,273.46H94.13v-1.6h12.63v1.6h-5.28v12.67H99.4Z"/><path class="cls-11" d="M108.76,271.86h7.45c3,0,4.81,1.44,4.81,3.74a3.42,3.42,0,0,1-2.75,3.62h0c1.84.32,2.2,1.56,2.37,2.94s0,3,.93,3.94h-2.35c-.6-.58-.27-2.12-.57-3.52S118.05,280,116,280h-5.15v6.09h-2.1Zm6.5,6.57c2,0,3.66-.46,3.66-2.54,0-1.42-.84-2.44-2.82-2.44h-5.23v5Z"/><path class="cls-11" d="M124.25,271.86h2.11v14.27h-2.11Z"/><path class="cls-11" d="M141.27,276.16c-.47-2-2.22-3-4.44-3-3.77,0-5.37,2.8-5.37,5.77,0,3.26,1.6,6,5.39,6a4.27,4.27,0,0,0,4.56-4q0-.08,0-.16h2.11c-.42,3.58-2.84,5.72-6.86,5.72-4.9,0-7.32-3.28-7.32-7.43s2.62-7.51,7.5-7.51c3.3,0,6.05,1.6,6.52,4.64Z"/><path class="cls-11" d="M152.76,271.86h5.43c4.88,0,7.61,2.22,7.61,6.79,0,4.77-2.33,7.47-7.61,7.47h-5.43Zm2.11,12.67h3.51c1.44,0,5.32-.36,5.32-5.61,0-3.4-1.4-5.46-5.28-5.46h-3.55Z"/><path class="cls-11" d="M168.58,271.86h10.93v1.6h-8.83V278h8.23v1.62h-8.23v4.94h8.89v1.6h-11Z"/><path class="cls-11" d="M182.31,271.86h2.24l8.34,11.57h0V271.86h2v14.27h-2.31l-8.27-11.45h0v11.45h-2Z"/><path class="cls-11" d="M202.17,273.46h-5.28v-1.6h12.66v1.6h-5.28v12.67h-2.11Z"/><path class="cls-11" d="M211.62,271.86h2.14v14.27h-2.11Z"/><path class="cls-11" d="M226.66,276c-.24-2.06-1.73-2.92-3.93-2.92-1.8,0-3.55.58-3.55,2.44,0,3.52,10.14,1,10.14,6.65,0,3-3.3,4.26-6.19,4.26-3.55,0-6.54-1.58-6.54-5h2c0,2.4,2.22,3.44,4.61,3.44,1.91,0,4-.54,4-2.6,0-3.92-10.14-1.34-10.14-6.57,0-2.88,2.84-4.18,5.74-4.18,3.24,0,5.72,1.38,5.83,4.52Z"/><path class="cls-11" d="M235.68,273.46H230.4v-1.6h12.66v1.6h-5.3v12.67h-2.11Z"/><path class="cls-11" d="M245.05,271.86h7.45c3,0,4.81,1.44,4.81,3.74a3.42,3.42,0,0,1-2.75,3.62h0c1.84.32,2.2,1.56,2.37,2.94s0,3,.93,3.94h-2.35c-.6-.58-.27-2.12-.58-3.52s-.6-2.58-2.64-2.58h-5.15v6.09H245Zm6.5,6.57c2,0,3.66-.46,3.66-2.54,0-1.42-.84-2.44-2.82-2.44h-5.24v5Z"/><path class="cls-11" d="M267,280.29v5.83H264.9v-5.83l-6.14-8.43h2.51l4.76,6.76,4.64-6.79h2.4Z"/></svg>