<svg id="Layer_1" data-name="Layer 1" xmlns="http://www.w3.org/2000/svg" width="290" height="130" viewBox="0 0 290 130"><defs><style>.cls-1{fill:#f5fbfe;}.cls-2{fill:#9fddf9;}.cls-3{fill:#e1f4fd;}.cls-4{fill:#9d248f;}.cls-5{fill:#ec008c;}.cls-6{fill:#fbec22;}.cls-7{fill:#21bec6;}.cls-8{fill:#fff;}.cls-9{fill:none;stroke:#fff;stroke-linecap:round;stroke-width:1.31px;}.cls-10{fill:#00b9f2;}.cls-11{fill:#91d9f8;}.cls-12{fill:#d4d4d4;}</style></defs><title>Artboard 1</title><path class="cls-1" d="M62.32,21.94c2.33,1,5.29,4.39,5.62,7.43l.05-.82c0-.22,0-.4,0-.57a8.27,8.27,0,0,0-8.22-8.3A8.13,8.13,0,0,0,55.34,21l-1.65,1.08a13.27,13.27,0,0,1,8.63-.15"/><path class="cls-2" d="M69.71,28.67c0-.23,0-.45,0-.68a10,10,0,0,0-9.94-10,9.82,9.82,0,0,0-5.39,1.61A13.51,13.51,0,0,0,29.08,16a12.47,12.47,0,0,0-2.4-.23A13.09,13.09,0,0,0,13.81,28.12a12.72,12.72,0,0,0,1.81,25.29h3.92a12.68,12.68,0,0,0,21.19,1.18,12.92,12.92,0,0,0,22.42-1.18h2.48a12.73,12.73,0,0,0,4.06-24.74"/><path class="cls-3" d="M51.61,58.22a12.07,12.07,0,0,1-10.15-5.55l-.67-1-.73,1a11.76,11.76,0,0,1-9.52,4.82,11.92,11.92,0,0,1-10.25-5.92L20,51.09H15.63C9.16,51.09,3.9,47.23,3.9,40.7A11.86,11.86,0,0,1,13.94,29l.69-.1,0-.7a12.27,12.27,0,0,1,12-11.58,11.68,11.68,0,0,1,2.23.22l.63.12.29-.57a12.65,12.65,0,0,1,23.72,3.35L53.81,21l1.06-.69a9,9,0,0,1,4.93-1.47A9.13,9.13,0,0,1,68.88,28c0,.18,0,.38,0,.62l0,.67.63.21A11.83,11.83,0,0,1,77.37,40.7c0,6.53-5.26,10.39-11.73,10.39h-3l-.24.47a12.08,12.08,0,0,1-10.79,6.65"/><path class="cls-1" d="M41.12,12c4.81,0,9.94,4.21,11.88,9.31l-.28-1.44a11.79,11.79,0,0,0-22.11-3.13l-.1.2A14.75,14.75,0,0,1,41.12,12"/><path class="cls-1" d="M20.73,21.42c1.63-1.39,5.88-3.54,8.42-3.67l-.4-.08a10.81,10.81,0,0,0-2.07-.2A11.4,11.4,0,0,0,15.53,28.24v.12a18.14,18.14,0,0,1,5.21-6.94"/><path class="cls-4" d="M83.39,15.64c-.27.66-.46,1.22-.75,1.84L62.1,57.23,28.61,39.92c10.45,2.64,47.25-9.71,54.78-24.28"/><path class="cls-5" d="M97.22,75.59,62.55,57.45l21-41.54c-3.4,10.17-5.1,43.37,13.63,59.68"/><path class="cls-6" d="M97,75.91C84.81,72.72,50.59,87,39.89,101.51L62.35,57.89S96.92,75.82,97,75.91"/><path class="cls-7" d="M61.95,57.63S39.66,100.56,39.42,101c3.9-7.54,6.46-46.43-10.9-60.66.63.28,33.43,17.34,33.43,17.34"/><path class="cls-8" d="M55.56,71.76a20.6,20.6,0,0,0,17.51.07A16.38,16.38,0,0,1,44.4,58.27,20.61,20.61,0,0,0,55.56,71.76"/><line class="cls-9" x1="28.89" y1="40.2" x2="96.65" y2="75.54"/><line class="cls-9" x1="39.7" y1="101.48" x2="83.5" y2="16.14"/><path class="cls-4" d="M117.93,74.75l-10.5-15.83V74.75h-2.95V44.12h2.95v14.1l9.11-14.1h3.21L110.6,58.39l10.89,16.36Z"/><path class="cls-4" d="M129,75.14c-5.55,0-6.25-3.9-6.25-8.46V65.51c0-2.13-.13-8.55.61-10.37,1-2.43,3.08-3.25,5.6-3.25,5.51,0,6.29,3.34,6.29,8V64.2h-9.63v2.65c0,1.21.09,3.82.82,4.82a3.23,3.23,0,0,0,2.6,1c3.34,0,3.34-2.78,3.34-5.29h2.86v.39C135.29,72.27,134,75.14,129,75.14Zm3.38-15.79c0-1.69.13-3.51-1.43-4.55a3.56,3.56,0,0,0-1.87-.52c-3,0-3.47,2-3.47,4.47v3h6.77Z"/><path class="cls-4" d="M146.4,54.88c-3.95,0-4.29,3.86-4.29,6.94V74.75h-2.82V52.27H142v3.56c.74-2.73,1.61-3.77,4.6-3.77h.52v2.86A3.73,3.73,0,0,0,146.4,54.88Z"/><path class="cls-4" d="M161,71.88a4.65,4.65,0,0,1-4.47,3.25,6.36,6.36,0,0,1-4.6-2.26v1.87h-2.65V44.12H152v9.8a5.39,5.39,0,0,1,4.16-2c5.9,0,5.25,6.51,5.25,10.58C161.45,64.34,161.54,70.32,161,71.88Zm-2.43-10.8c0-1.34,0-4.64-.82-5.68a2.72,2.72,0,0,0-2.3-1.13,3.07,3.07,0,0,0-3,2.17c-.39,1-.39,4.55-.39,5.68,0,1.65,0,3.3,0,4.95a14.65,14.65,0,0,0,.09,2.39c.3,1.82,1.39,3.21,3.34,3.21,3.43,0,3-4.47,3-6.77Z"/><path class="cls-4" d="M171.52,75.14c-5.55,0-6.25-3.9-6.25-8.46V65.51c0-2.13-.13-8.55.61-10.37,1-2.43,3.08-3.25,5.6-3.25,5.51,0,6.29,3.34,6.29,8V64.2h-9.63v2.65c0,1.21.09,3.82.82,4.82a3.23,3.23,0,0,0,2.6,1c3.34,0,3.34-2.78,3.34-5.29h2.86v.39C177.77,72.27,176.47,75.14,171.52,75.14Zm3.38-15.79c0-1.69.13-3.51-1.43-4.55a3.56,3.56,0,0,0-1.87-.52c-3,0-3.47,2-3.47,4.47v3h6.77Z"/><path class="cls-4" d="M188.88,54.88c-3.95,0-4.29,3.86-4.29,6.94V74.75h-2.82V52.27h2.69v3.56c.74-2.73,1.6-3.77,4.6-3.77h.52v2.86A3.74,3.74,0,0,0,188.88,54.88Z"/><path class="cls-4" d="M209.71,74.4a10.49,10.49,0,0,1-3.82.74c-2.56,0-5.34-.82-6.59-3.25-.82-1.65-.82-4.08-.82-5.9h2.95c0,1.87-.22,4.34,1.43,5.64a4.32,4.32,0,0,0,2.78.87c3.43,0,5.16-1.52,5.16-5.08,0-4.73-2.86-5.94-6.38-8.2a15.73,15.73,0,0,1-3.17-2.43,9,9,0,0,1-2.08-6c0-4.6,2.47-7,7.16-7,4.95,0,7,2.56,7,7.24v.74h-2.82c0-3-.52-5.38-4.21-5.38-2.78,0-4.25,1.47-4.25,4.21,0,4.73,3.6,5.86,7,8.11a11.94,11.94,0,0,1,2.47,2,9.55,9.55,0,0,1,2.17,6.59C213.7,70.19,212.74,73.23,209.71,74.4Z"/><path class="cls-4" d="M235.74,74.75V58.91c0-2.13-.3-4.47-3-4.47a3.25,3.25,0,0,0-2,.69c-1.26,1.08-1.26,2.56-1.26,4.08V74.75h-2.86V58.56c0-2.13-.35-4.12-3-4.12-2.95,0-3.21,2.47-3.21,4.77V74.75H217.6V52.27h2.65V54a6,6,0,0,1,4.43-2.08,4.58,4.58,0,0,1,4.25,2.52,5.58,5.58,0,0,1,4.73-2.52c4.16,0,4.9,3.38,4.9,6.77v16.1Z"/><path class="cls-4" d="M242.94,47.68V44.12h2.82v3.56Zm0,27.07V52.27h2.82V74.75Z"/><path class="cls-4" d="M250.19,74.75V44.12H253V74.75Z"/><path class="cls-4" d="M263.38,75.14c-5.55,0-6.25-3.9-6.25-8.46V65.51c0-2.13-.13-8.55.61-10.37,1-2.43,3.08-3.25,5.6-3.25,5.51,0,6.29,3.34,6.29,8V64.2H260v2.65c0,1.21.09,3.82.82,4.82a3.23,3.23,0,0,0,2.6,1c3.34,0,3.34-2.78,3.34-5.29h2.86v.39C269.63,72.27,268.33,75.14,263.38,75.14Zm3.38-15.79c0-1.69.13-3.51-1.43-4.55a3.55,3.55,0,0,0-1.87-.52c-3,0-3.47,2-3.47,4.47v3h6.77Z"/><path class="cls-4" d="M279,75.14c-4.21,0-6-2-6-6V67.5h2.82v1.3c0,2.21.48,3.95,3.08,3.95,2.13,0,2.95-1.48,2.95-3.47,0-2.43-1-3.38-2.91-4.6-2.95-1.87-5.81-3.43-5.81-7.42,0-3.43,2.17-5.38,5.6-5.38,2.26,0,4.38.82,5.29,3a11.88,11.88,0,0,1,.39,3.73h-2.86v-1c0-2-.43-3.43-2.78-3.43A2.58,2.58,0,0,0,276,57.13c0,2.3,1.26,3,3,4.16A18.07,18.07,0,0,1,282.82,64a7.61,7.61,0,0,1,1.87,5.21C284.69,72.84,282.65,75.14,279,75.14Z"/><path class="cls-10" d="M115.56,84.15h4.53c2.07,0,3.17,1,3.17,2.75s-1.1,2.76-3.17,2.75h-3.15v3.8h-1.37Zm1.37,4.46h2.69c1.56,0,2.26-.6,2.26-1.71s-.69-1.71-2.26-1.71h-2.69Z"/><path class="cls-10" d="M125.08,84.15h7.13v1h-5.76v3h5.37v1h-5.37v3.22h5.8v1h-7.17Z"/><path class="cls-10" d="M134.06,84.15h3.54c3.18,0,5,1.45,5,4.43s-1.52,4.87-5,4.87h-3.54Zm1.37,8.26h2.29c.94,0,3.47-.23,3.47-3.66,0-2.21-.91-3.56-3.44-3.56h-2.31Z"/><path class="cls-10" d="M144.44,84.15h1.37v9.3h-1.37Z"/><path class="cls-10" d="M151.08,84.15h1.52l4,9.3h-1.52L154,90.65h-4.37l-1.16,2.8H147Zm-1,5.46h3.5l-1.72-4.34h0Z"/><path class="cls-10" d="M160.14,85.19H156.7v-1H165v1h-3.44v8.26h-1.37Z"/><path class="cls-10" d="M166.24,84.15h4.86c2,0,3.14.94,3.14,2.44a2.23,2.23,0,0,1-1.79,2.36v0c1.2.21,1.43,1,1.55,1.91a4.28,4.28,0,0,0,.61,2.57h-1.53c-.39-.38-.17-1.38-.37-2.29s-.39-1.68-1.72-1.68h-3.36v4h-1.37Zm4.24,4.29c1.27,0,2.39-.3,2.39-1.65,0-.93-.55-1.59-1.84-1.59h-3.41v3.24Z"/><path class="cls-10" d="M176.34,84.15h1.37v9.3h-1.37Z"/><path class="cls-10" d="M187.43,86.95a2.69,2.69,0,0,0-2.89-2c-2.46,0-3.5,1.82-3.5,3.76,0,2.12,1,3.89,3.51,3.89a2.79,2.79,0,0,0,3-2.68h1.37c-.28,2.33-1.85,3.73-4.47,3.73-3.19,0-4.77-2.14-4.77-4.85a4.61,4.61,0,0,1,4.89-4.9c2.15,0,3.95,1,4.25,3Z"/><path class="cls-10" d="M194.92,84.15h3.54c3.18,0,5,1.45,5,4.43s-1.52,4.87-5,4.87h-3.54Zm1.37,8.26h2.29c.94,0,3.47-.23,3.47-3.66,0-2.21-.91-3.56-3.44-3.56H196.3Z"/><path class="cls-10" d="M205.24,84.15h7.13v1h-5.76v3H212v1h-5.37v3.22h5.8v1h-7.17Z"/><path class="cls-10" d="M214.19,84.15h1.46l5.44,7.54h0V84.15h1.3v9.3h-1.5L215.52,86h0v7.46h-1.3Z"/><path class="cls-10" d="M227.13,85.19h-3.44v-1h8.26v1h-3.44v8.26h-1.37Z"/><path class="cls-10" d="M233.3,84.15h1.37v9.3H233.3Z"/><path class="cls-10" d="M243.1,86.87c-.16-1.34-1.13-1.9-2.56-1.9-1.17,0-2.31.38-2.31,1.59,0,2.29,6.61.68,6.61,4.34,0,2-2.15,2.78-4,2.78-2.31,0-4.27-1-4.27-3.28h1.3c0,1.56,1.45,2.24,3,2.24,1.24,0,2.62-.35,2.62-1.69,0-2.55-6.61-.87-6.61-4.29,0-1.88,1.85-2.72,3.75-2.72,2.11,0,3.73.9,3.8,2.94Z"/><path class="cls-10" d="M249,85.19h-3.44v-1h8.26v1h-3.44v8.26H249Z"/><path class="cls-10" d="M255.09,84.15H260c2,0,3.14.94,3.14,2.44a2.23,2.23,0,0,1-1.79,2.36v0c1.2.21,1.43,1,1.55,1.91a4.27,4.27,0,0,0,.61,2.57h-1.53c-.39-.38-.17-1.38-.38-2.29s-.39-1.68-1.72-1.68h-3.36v4h-1.37Zm4.24,4.29c1.27,0,2.39-.3,2.39-1.65,0-.93-.55-1.59-1.84-1.59h-3.41v3.24Z"/><path class="cls-10" d="M269.41,89.65v3.8H268v-3.8l-4-5.5h1.63l3.09,4.43,3-4.43h1.56Z"/><path class="cls-11" d="M130.09,13.58c0-.15,0-.29,0-.44a6.39,6.39,0,0,0-6.36-6.43,6.28,6.28,0,0,0-3.45,1,8.64,8.64,0,0,0-16.21-2.29,8,8,0,0,0-1.53-.15,8.38,8.38,0,0,0-8.24,7.93,8.14,8.14,0,0,0,1.16,16.18H98a8.11,8.11,0,0,0,13.56.76,8.27,8.27,0,0,0,14.35-.76h1.59a8.14,8.14,0,0,0,2.6-15.83"/><path class="cls-3" d="M118.51,32.49a7.73,7.73,0,0,1-6.5-3.55l-.43-.66-.47.63A7.52,7.52,0,0,1,105,32a7.63,7.63,0,0,1-6.56-3.79l-.16-.27H95.48c-4.14,0-7.5-2.47-7.5-6.65a7.59,7.59,0,0,1,6.42-7.5l.44-.06,0-.45a7.85,7.85,0,0,1,7.69-7.41A7.47,7.47,0,0,1,104,6l.4.08.19-.37a8.09,8.09,0,0,1,15.18,2.15l.16.8.68-.44a5.75,5.75,0,0,1,3.15-.94,5.85,5.85,0,0,1,5.81,5.87c0,.12,0,.24,0,.4l0,.43.4.14A7.57,7.57,0,0,1,135,21.28c0,4.18-3.37,6.65-7.5,6.65h-1.93l-.15.3a7.73,7.73,0,0,1-6.9,4.26"/><path class="cls-1" d="M111.79,2.93c3.08,0,6.36,2.69,7.61,6h0L119.22,8a7.55,7.55,0,0,0-14.15-2l-.07.13a9.44,9.44,0,0,1,6.79-3.16"/><path class="cls-1" d="M98.74,8.94a12.11,12.11,0,0,1,5.39-2.35l-.25,0a7,7,0,0,0-1.33-.13,7.3,7.3,0,0,0-7.14,6.89v.08a11.61,11.61,0,0,1,3.33-4.44"/><path class="cls-12" d="M38.42,101.75c-4.37,5-1.17,15,11.92,16.34s18.18-9.7,31.44-9.27,3.84,18.79,22.37,20.8c-7.48-2.48-10.33-2.49-13.84-16.3s-23.17-2.15-27.51.56-17.13,5.39-23.07-2.56S45.92,98.25,38.42,101.75Z"/><path class="cls-12" d="M38.92,117.88c1.88,4.25,13.41,11,26.45,4.67S76.18,111,86.61,116.86c-5.2-4.48-10-4.23-16.5,1.34S54.17,127.25,38.92,117.88Z"/><path class="cls-5" d="M142.88,116.37V105.64h2v9.15h4.49l-.06,1.58Z"/><path class="cls-5" d="M154,116.52a3.56,3.56,0,0,1-2.81-1.16,5.08,5.08,0,0,1,0-6.12,3.72,3.72,0,0,1,2.89-1.12,3.59,3.59,0,0,1,2.82,1.15,5.06,5.06,0,0,1,0,6.12A3.71,3.71,0,0,1,154,116.52Zm.05-1.46a1.66,1.66,0,0,0,1.46-.71,4.49,4.49,0,0,0,0-4.08,1.89,1.89,0,0,0-2.95,0,3.56,3.56,0,0,0-.49,2,3.51,3.51,0,0,0,.5,2A1.69,1.69,0,0,0,154,115.07Z"/><path class="cls-5" d="M159.2,116.37v-8h1.61l.25,1.23a2.54,2.54,0,0,1,2.29-1.27,3.63,3.63,0,0,1,.51,0l0,1.6a4.1,4.1,0,0,0-.61,0,2.06,2.06,0,0,0-1.59.56,2.22,2.22,0,0,0-.52,1.57v4.37Z"/><path class="cls-5" d="M165.08,107.15v-1.64H167v1.64Zm0,9.22v-8H167v8Z"/><path class="cls-5" d="M173.13,116.37V105.64h2v4.83q.52-.69,2.13-2.57t1.92-2.26h2.35l-4.06,4.83,4.31,5.9h-2.33l-3.5-4.81-.82.69v4.12Z"/><path class="cls-5" d="M185.46,116.52a4,4,0,0,1-3-1.12,4.25,4.25,0,0,1-1.08-3.09,4.4,4.4,0,0,1,1-3.05,3.56,3.56,0,0,1,2.78-1.14,3.26,3.26,0,0,1,2.58,1,4,4,0,0,1,.92,2.76c0,.08,0,.22,0,.4s0,.32,0,.41h-5.35a2.53,2.53,0,0,0,.62,1.75,2.14,2.14,0,0,0,1.62.62,5.08,5.08,0,0,0,2.54-.69l.27,1.36A5.36,5.36,0,0,1,185.46,116.52Zm-2.13-5h3.52a2.28,2.28,0,0,0-.45-1.51,1.54,1.54,0,0,0-1.24-.53,1.7,1.7,0,0,0-1.25.51A2.33,2.33,0,0,0,183.33,111.53Z"/><path class="cls-5" d="M189.92,116.37v-8h1.61l.25,1.23a2.54,2.54,0,0,1,2.29-1.27,3.61,3.61,0,0,1,.51,0l0,1.6a4.09,4.09,0,0,0-.61,0,2.06,2.06,0,0,0-1.59.56,2.22,2.22,0,0,0-.52,1.57v4.37Z"/><path class="cls-5" d="M200.07,116.52a3.07,3.07,0,0,1-1.49-.36,2.58,2.58,0,0,1-1-.82l-.19,1h-1.66v-11l1.92-.12v2.49q0,.73,0,1.65a3,3,0,0,1,2.48-1.25,2.87,2.87,0,0,1,2.41,1.14,4.78,4.78,0,0,1,.88,3,4.94,4.94,0,0,1-.91,3.09A2.91,2.91,0,0,1,200.07,116.52Zm-.46-1.46a1.6,1.6,0,0,0,1.37-.73,3.53,3.53,0,0,0,.51-2.06,3.42,3.42,0,0,0-.5-2,1.59,1.59,0,0,0-1.36-.69q-1.95,0-2,2.63a3.82,3.82,0,0,0,.49,2.17A1.66,1.66,0,0,0,199.61,115.07Z"/><path class="cls-5" d="M208.39,116.52a4,4,0,0,1-3-1.12,4.25,4.25,0,0,1-1.08-3.09,4.4,4.4,0,0,1,1-3.05,3.56,3.56,0,0,1,2.78-1.14,3.26,3.26,0,0,1,2.58,1,4,4,0,0,1,.92,2.76c0,.08,0,.22,0,.4s0,.32,0,.41h-5.35a2.53,2.53,0,0,0,.62,1.75,2.14,2.14,0,0,0,1.62.62,5.08,5.08,0,0,0,2.54-.69l.27,1.36A5.36,5.36,0,0,1,208.39,116.52Zm-2.13-5h3.52a2.28,2.28,0,0,0-.45-1.51,1.54,1.54,0,0,0-1.24-.53,1.7,1.7,0,0,0-1.25.51A2.33,2.33,0,0,0,206.26,111.53Z"/><path class="cls-5" d="M212.85,116.37v-8h1.61l.25,1.23a2.54,2.54,0,0,1,2.29-1.27,3.61,3.61,0,0,1,.51,0l0,1.6a4.09,4.09,0,0,0-.61,0,2.06,2.06,0,0,0-1.59.56,2.22,2.22,0,0,0-.52,1.57v4.37Z"/><path class="cls-5" d="M216,118q.33-1.62.55-3H218l0,.29q-.38,1.32-.93,2.73Z"/><path class="cls-5" d="M222.69,116.37v-8.58h2.48a7.25,7.25,0,0,1,2,.26,4.31,4.31,0,0,1,1.53.78,3.35,3.35,0,0,1,1,1.34,4.85,4.85,0,0,1,.34,1.89,4.07,4.07,0,0,1-1.25,3.2,5,5,0,0,1-3.47,1.12Zm1.59-1.27h1.14a2.7,2.7,0,0,0,3-3,3,3,0,0,0-.79-2.3,3.45,3.45,0,0,0-2.38-.72h-1Z"/><path class="cls-5" d="M231.32,116.37v-8.58h2.48a7.25,7.25,0,0,1,2,.26,4.31,4.31,0,0,1,1.53.78,3.35,3.35,0,0,1,1,1.34,4.85,4.85,0,0,1,.34,1.89,4.07,4.07,0,0,1-1.25,3.2,5,5,0,0,1-3.47,1.12Zm1.59-1.27H234a2.7,2.7,0,0,0,3-3,3,3,0,0,0-.79-2.3,3.45,3.45,0,0,0-2.38-.72h-1Z"/><path class="cls-5" d="M242.36,116.49a5.44,5.44,0,0,1-2.78-.71l.39-1.26a5.8,5.8,0,0,0,1.2.49,4.53,4.53,0,0,0,1.26.19,1.74,1.74,0,0,0,1.14-.33,1.15,1.15,0,0,0,.39-.93q0-.81-1.08-1.12l-.43-.13-.66-.2-.44-.15a2.27,2.27,0,0,1-1.73-2.27,2.13,2.13,0,0,1,.83-1.8,3.53,3.53,0,0,1,2.2-.63,5.34,5.34,0,0,1,2.68.64l-.48,1.16a5.24,5.24,0,0,0-2.13-.52,1.88,1.88,0,0,0-1.07.25,1,1,0,0,0-.38.83.9.9,0,0,0,.71.93l.69.23.71.23a3.8,3.8,0,0,1,1.68,1,2.34,2.34,0,0,1,.51,1.6,2.23,2.23,0,0,1-.87,1.88A3.77,3.77,0,0,1,242.36,116.49Z"/></svg>